<svg width="49" height="48" viewBox="0 0 49 48" fill="none" xmlns="http://www.w3.org/2000/svg">
<path d="M43.1668 19.9997H41.8335V11.9997C41.8335 11.646 41.693 11.3069 41.443 11.0569C41.1929 10.8068 40.8538 10.6663 40.5002 10.6663H8.50018C8.18446 10.6715 7.87716 10.5644 7.633 10.3642C7.38883 10.164 7.22364 9.88362 7.16685 9.57301V9.09301C7.22364 8.7824 7.38883 8.50202 7.633 8.30181C7.87716 8.10159 8.18446 7.99452 8.50018 7.99967H39.9402C40.2938 7.99967 40.6329 7.8592 40.883 7.60915C41.133 7.3591 41.2735 7.01996 41.2735 6.66634C41.2735 6.31272 41.133 5.97358 40.883 5.72353C40.6329 5.47348 40.2938 5.33301 39.9402 5.33301H8.50018C7.43932 5.33301 6.4219 5.75444 5.67176 6.50458C4.92161 7.25473 4.50018 8.27214 4.50018 9.33301C4.49082 9.49287 4.49082 9.65314 4.50018 9.81301V37.2397C4.50542 37.9576 4.652 38.6674 4.93158 39.3286C5.21115 39.9899 5.61823 40.5896 6.12957 41.0935C6.64092 41.5974 7.24651 41.9957 7.91178 42.2655C8.57704 42.5354 9.28895 42.6716 10.0068 42.6663H40.5002C40.8538 42.6663 41.1929 42.5259 41.443 42.2758C41.693 42.0258 41.8335 41.6866 41.8335 41.333V33.333H43.1668C43.5205 33.333 43.8596 33.1925 44.1097 32.9425C44.3597 32.6924 44.5002 32.3533 44.5002 31.9997V21.333C44.5002 20.9794 44.3597 20.6402 44.1097 20.3902C43.8596 20.1401 43.5205 19.9997 43.1668 19.9997ZM39.1668 39.9997H10.0068C9.26525 40.0068 8.55082 39.7209 8.01897 39.204C7.48712 38.6871 7.18087 37.9812 7.16685 37.2397V13.173C7.59965 13.2984 8.05 13.3525 8.50018 13.333H39.1668V19.9997H29.8335C28.0654 19.9997 26.3697 20.702 25.1195 21.9523C23.8692 23.2025 23.1668 24.8982 23.1668 26.6663C23.1668 28.4344 23.8692 30.1301 25.1195 31.3804C26.3697 32.6306 28.0654 33.333 29.8335 33.333H39.1668V39.9997ZM41.8335 30.6663H29.8335C28.7726 30.6663 27.7552 30.2449 27.0051 29.4948C26.2549 28.7446 25.8335 27.7272 25.8335 26.6663C25.8335 25.6055 26.2549 24.5881 27.0051 23.8379C27.7552 23.0878 28.7726 22.6663 29.8335 22.6663H41.8335V30.6663Z" fill="#F81DFB"/>
<path d="M31.1799 28.667C32.2845 28.667 33.1799 27.7716 33.1799 26.667C33.1799 25.5624 32.2845 24.667 31.1799 24.667C30.0754 24.667 29.1799 25.5624 29.1799 26.667C29.1799 27.7716 30.0754 28.667 31.1799 28.667Z" fill="#908294"/>
</svg>
